<svg width="23" height="23" viewBox="0 0 23 23" fill="none" xmlns="http://www.w3.org/2000/svg">
<path d="M20.8123 17.4791L17.8304 3.30173C17.7918 3.11633 17.717 2.94037 17.6102 2.78398C17.5035 2.62758 17.3668 2.49382 17.2082 2.39038C17.0496 2.28694 16.8721 2.21586 16.6859 2.18123C16.4998 2.14659 16.3086 2.14909 16.1234 2.18856L11.9178 3.09239C11.5458 3.17384 11.221 3.39888 11.014 3.71855C10.8071 4.03822 10.7347 4.42668 10.8127 4.79942L13.7946 18.9768C13.8611 19.3002 14.0369 19.5909 14.2924 19.8C14.548 20.0091 14.8678 20.1239 15.198 20.125C15.3 20.1248 15.4018 20.114 15.5016 20.0926L19.7072 19.1888C20.0797 19.1072 20.4048 18.8817 20.6118 18.5614C20.8187 18.2412 20.8908 17.8522 20.8123 17.4791ZM12.2188 4.50563V4.49755L16.4234 3.59911L16.7226 5.02493L12.5179 5.92966L12.2188 4.50563ZM13.1172 8.76243L12.8162 7.33391L17.0227 6.43009L17.3228 7.8586L13.1172 8.76243ZM19.4063 17.7836L15.2016 18.6821L14.9024 17.2563L19.1071 16.3515L19.4063 17.7756V17.7836ZM9.34375 2.87497H5.03125C4.65 2.87497 4.28437 3.02642 4.01478 3.296C3.7452 3.56559 3.59375 3.93122 3.59375 4.31247V18.6875C3.59375 19.0687 3.7452 19.4344 4.01478 19.7039C4.28437 19.9735 4.65 20.125 5.03125 20.125H9.34375C9.725 20.125 10.0906 19.9735 10.3602 19.7039C10.6298 19.4344 10.7813 19.0687 10.7813 18.6875V4.31247C10.7813 3.93122 10.6298 3.56559 10.3602 3.296C10.0906 3.02642 9.725 2.87497 9.34375 2.87497ZM5.03125 4.31247H9.34375V5.74997H5.03125V4.31247ZM9.34375 18.6875H5.03125V17.25H9.34375V18.6875Z" fill="#D5D7DC"/>
</svg>
