<svg width="64" height="64" viewBox="0 0 64 64" fill="none" xmlns="http://www.w3.org/2000/svg">
<g filter="url(#filter0_d_105_1028)">
<rect x="12" y="6" width="40" height="40" rx="12" fill="url(#paint0_radial_105_1028)"/>
<rect x="12" y="6" width="40" height="40" rx="12" fill="url(#paint1_radial_105_1028)"/>
<rect x="12" y="6" width="40" height="40" rx="12" fill="url(#paint2_radial_105_1028)"/>
<path d="M32 36.8334C29.0843 36.8334 28.6992 36.8207 27.5329 36.7682C26.6344 36.7491 25.7454 36.5789 24.9033 36.2647C24.1803 35.9929 23.5254 35.5662 22.9846 35.0146C22.4333 34.4734 22.0069 33.8183 21.7354 33.0951C21.4212 32.253 21.251 31.364 21.2318 30.4654C21.1794 29.3009 21.1667 28.9149 21.1667 26.0001C21.1667 23.1047 21.1794 22.7154 21.2318 21.533C21.25 20.6344 21.42 19.7453 21.7346 18.9034C22.0073 18.1806 22.4342 17.5259 22.9855 16.9847C23.5263 16.4334 24.1812 16.007 24.9042 15.7355C25.7462 15.4211 26.6352 15.2508 27.5338 15.2319C28.6992 15.1794 29.0852 15.1667 32 15.1667C34.9148 15.1667 35.3008 15.1794 36.4645 15.2319C37.3639 15.251 38.2537 15.4212 39.0967 15.7355C39.8191 16.0073 40.4733 16.4336 41.0137 16.9847C41.565 17.5259 41.9918 18.1806 42.2646 18.9034C42.577 19.746 42.7472 20.6346 42.7682 21.533C42.8206 22.6993 42.8333 23.0886 42.8333 26.0001C42.8333 28.9115 42.8206 29.3009 42.769 30.4671C42.7479 31.3652 42.5778 32.2536 42.2654 33.0959C41.9867 33.8154 41.561 34.4689 41.0156 35.0146C40.4701 35.5604 39.8169 35.9864 39.0975 36.2655C38.2548 36.5797 37.3653 36.7499 36.4662 36.7691C35.3008 36.8216 34.9148 36.8334 32 36.8334ZM31.0292 17.1134C29.0158 17.1134 28.6341 17.1286 27.6235 17.1743C26.9364 17.1822 26.2558 17.3087 25.6117 17.5484C25.1411 17.7222 24.7154 17.9992 24.3659 18.3592C24.0059 18.7087 23.7289 19.1344 23.5551 19.605C23.3161 20.2489 23.1898 20.9292 23.1818 21.616C23.1302 22.7526 23.1192 23.0945 23.1192 25.9925C23.1192 28.8904 23.1302 29.234 23.1818 30.3698C23.1898 31.0566 23.3161 31.7368 23.5551 32.3807C23.7289 32.8511 24.006 33.2765 24.3659 33.6257C24.7154 33.9857 25.1411 34.2627 25.6117 34.4365C26.2561 34.6747 26.9365 34.801 27.6235 34.8098C28.7737 34.8623 29.1173 34.8733 32.0008 34.8733C34.8844 34.8733 35.2271 34.8623 36.3782 34.8098C37.065 34.8018 37.7452 34.6755 38.3891 34.4365C38.8561 34.2562 39.2802 33.9803 39.6342 33.6264C39.9883 33.2725 40.2644 32.8485 40.4449 32.3816C40.6839 31.7377 40.8101 31.0574 40.8182 30.3707C40.8706 29.2205 40.8816 28.8768 40.8816 25.995C40.8816 23.1132 40.8706 22.7695 40.8182 21.6194C40.8102 20.9326 40.6839 20.2523 40.4449 19.6084C40.2709 19.1379 39.9939 18.7122 39.6341 18.3626C39.2848 18.0026 38.8591 17.7258 38.3883 17.5526C37.7444 17.3136 37.0641 17.1874 36.3773 17.1794C35.2407 17.1278 34.8988 17.1167 32 17.1167H31.0292V17.1134ZM32 31.5623C30.8997 31.5623 29.8241 31.236 28.9092 30.6247C27.9944 30.0134 27.2813 29.1445 26.8603 28.1279C26.4393 27.1114 26.3291 25.9928 26.5439 24.9136C26.7586 23.8345 27.2885 22.8432 28.0666 22.0652C28.8447 21.2873 29.836 20.7575 30.9152 20.5429C31.9944 20.3284 33.113 20.4387 34.1295 20.8599C35.146 21.281 36.0148 21.9942 36.6259 22.9092C37.2371 23.8241 37.5633 24.8998 37.5631 26.0001C37.5611 27.4748 36.9743 28.8885 35.9314 29.9313C34.8885 30.974 33.4747 31.5605 32 31.5623ZM32 22.3887C31.286 22.389 30.5881 22.601 29.9946 22.9979C29.4011 23.3948 28.9386 23.9588 28.6656 24.6185C28.3925 25.2782 28.3212 26.0041 28.4607 26.7043C28.6001 27.4046 28.944 28.0478 29.449 28.5526C29.9539 29.0574 30.5971 29.4012 31.2974 29.5404C31.9977 29.6797 32.7235 29.6082 33.3832 29.335C34.0429 29.0618 34.6067 28.5992 35.0035 28.0056C35.4002 27.412 35.6121 26.7141 35.6122 26.0001C35.6111 25.0426 35.2301 24.1246 34.5529 23.4477C33.8757 22.7708 32.9575 22.3902 32 22.3895V22.3887ZM37.7831 21.5144C37.5259 21.5142 37.2745 21.4378 37.0608 21.2947C36.847 21.1516 36.6805 20.9483 36.5824 20.7105C36.4842 20.4728 36.4588 20.2112 36.5093 19.959C36.5599 19.7068 36.6841 19.4753 36.8662 19.2937C37.0484 19.1121 37.2804 18.9886 37.5328 18.9389C37.7851 18.8892 38.0466 18.9155 38.284 19.0144C38.5215 19.1134 38.7242 19.2805 38.8666 19.4947C39.009 19.7089 39.0847 19.9606 39.084 20.2178C39.0829 20.5621 38.9453 20.8919 38.7015 21.1349C38.4576 21.3779 38.1274 21.5144 37.7831 21.5144Z" fill="white"/>
</g>
<defs>
<filter id="filter0_d_105_1028" x="0" y="0" width="64" height="64" filterUnits="userSpaceOnUse" color-interpolation-filters="sRGB">
<feFlood flood-opacity="0" result="BackgroundImageFix"/>
<feColorMatrix in="SourceAlpha" type="matrix" values="0 0 0 0 0 0 0 0 0 0 0 0 0 0 0 0 0 0 127 0" result="hardAlpha"/>
<feOffset dy="6"/>
<feGaussianBlur stdDeviation="6"/>
<feColorMatrix type="matrix" values="0 0 0 0 0.882353 0 0 0 0 0.258824 0 0 0 0 0.364706 0 0 0 0.2 0"/>
<feBlend mode="normal" in2="BackgroundImageFix" result="effect1_dropShadow_105_1028"/>
<feBlend mode="normal" in="SourceGraphic" in2="effect1_dropShadow_105_1028" result="shape"/>
</filter>
<radialGradient id="paint0_radial_105_1028" cx="0" cy="0" r="1" gradientUnits="userSpaceOnUse" gradientTransform="translate(26.2857 36) rotate(-55.3758) scale(36.4566)">
<stop stop-color="#B13589"/>
<stop offset="0.79309" stop-color="#C62F94"/>
<stop offset="1" stop-color="#8A3AC8"/>
</radialGradient>
<radialGradient id="paint1_radial_105_1028" cx="0" cy="0" r="1" gradientUnits="userSpaceOnUse" gradientTransform="translate(24.8571 47.4286) rotate(-65.1363) scale(32.2775)">
<stop stop-color="#E0E8B7"/>
<stop offset="0.444662" stop-color="#FB8A2E"/>
<stop offset="0.71474" stop-color="#E2425C"/>
<stop offset="1" stop-color="#E2425C" stop-opacity="0"/>
</radialGradient>
<radialGradient id="paint2_radial_105_1028" cx="0" cy="0" r="1" gradientUnits="userSpaceOnUse" gradientTransform="translate(9.85715 7.42857) rotate(-8.1301) scale(55.5584 11.8834)">
<stop offset="0.156701" stop-color="#406ADC"/>
<stop offset="0.467799" stop-color="#6A45BE"/>
<stop offset="1" stop-color="#6A45BE" stop-opacity="0"/>
</radialGradient>
</defs>
</svg>
