<svg width="23" height="23" viewBox="0 0 23 23" fill="none" xmlns="http://www.w3.org/2000/svg">
<path fill-rule="evenodd" clip-rule="evenodd" d="M16.534 7.09209C16.534 9.95035 14.2809 12.2674 11.5015 12.2674C8.7221 12.2674 6.46897 9.95035 6.46897 7.09209C6.46897 4.23383 8.7221 1.91675 11.5015 1.91675C14.2809 1.91675 16.534 4.23383 16.534 7.09209ZM15.821 15.1834C17.4211 15.5073 18.4657 16.036 18.9134 16.8886C19.2497 17.554 19.2497 18.3462 18.9134 19.0116C18.4657 19.8642 17.4626 20.4269 15.8044 20.7168C15.0655 20.8658 14.3176 20.9626 13.5659 21.0067C12.8695 21.0834 12.173 21.0834 11.4683 21.0834H10.1998C9.93452 21.0493 9.67751 21.0323 9.42878 21.0323C8.67703 20.9936 7.92895 20.8996 7.19027 20.7509C5.59015 20.444 4.54551 19.8983 4.09781 19.0457C3.92498 18.7154 3.83386 18.3465 3.8325 17.9714C3.8289 17.594 3.91726 17.2218 4.08952 16.8886C4.52893 16.036 5.57357 15.4818 7.19027 15.1834C7.9322 15.0377 8.68284 14.9437 9.43707 14.902C10.8168 14.7908 12.2028 14.7908 13.5825 14.902C14.3338 14.9458 15.0815 15.0398 15.821 15.1834Z" fill="#2C3550"/>
</svg>
