<svg width="52" height="40" viewBox="0 0 52 40" fill="none" xmlns="http://www.w3.org/2000/svg">
<path d="M0.625 8.21875C0.625 6.05558 1.48432 3.981 3.01391 2.45141C4.5435 0.921817 6.61808 0.0625 8.78125 0.0625H43.2188C45.3819 0.0625 47.4565 0.921817 48.9861 2.45141C50.5157 3.981 51.375 6.05558 51.375 8.21875V31.7812C51.375 33.9444 50.5157 36.019 48.9861 37.5486C47.4565 39.0782 45.3819 39.9375 43.2188 39.9375H8.78125C6.61808 39.9375 4.5435 39.0782 3.01391 37.5486C1.48432 36.019 0.625 33.9444 0.625 31.7812V8.21875ZM8.78125 3.6875C7.57949 3.6875 6.42695 4.1649 5.57717 5.01467C4.7274 5.86445 4.25 7.01699 4.25 8.21875V10.9375H47.75V8.21875C47.75 7.01699 47.2726 5.86445 46.4228 5.01467C45.5731 4.1649 44.4205 3.6875 43.2188 3.6875H8.78125ZM4.25 31.7812C4.25 32.983 4.7274 34.1356 5.57717 34.9853C6.42695 35.8351 7.57949 36.3125 8.78125 36.3125H43.2188C44.4205 36.3125 45.5731 35.8351 46.4228 34.9853C47.2726 34.1356 47.75 32.983 47.75 31.7812V14.5625H4.25V31.7812ZM35.0625 25.4375H40.5C40.9807 25.4375 41.4417 25.6285 41.7816 25.9684C42.1215 26.3083 42.3125 26.7693 42.3125 27.25C42.3125 27.7307 42.1215 28.1917 41.7816 28.5316C41.4417 28.8715 40.9807 29.0625 40.5 29.0625H35.0625C34.5818 29.0625 34.1208 28.8715 33.7809 28.5316C33.441 28.1917 33.25 27.7307 33.25 27.25C33.25 26.7693 33.441 26.3083 33.7809 25.9684C34.1208 25.6285 34.5818 25.4375 35.0625 25.4375Z" fill="#1DA0F2"/>
</svg>
