<svg width="59" height="59" viewBox="0 0 59 59" fill="none" xmlns="http://www.w3.org/2000/svg">
<path d="M29.5 0C13.2135 0 0 13.2135 0 29.5C0 45.7988 13.2135 59 29.5 59C45.7988 59 59 45.7988 59 29.5C59 13.2012 45.7988 0 29.5 0ZM29.5 7.375C41.7179 7.375 51.625 17.2821 51.625 29.5C51.625 41.7179 41.7179 51.625 29.5 51.625C17.2821 51.625 7.375 41.7179 7.375 29.5C7.375 17.2821 17.2821 7.375 29.5 7.375ZM40.7223 15.2662C39.9233 15.2662 39.1858 15.5612 38.6573 16.2742C32.2656 24.8906 30.176 28.1356 25.6281 37.1454C24.5956 35.781 17.5648 28.2463 14.0863 25.579C12.3408 24.2392 9.00979 28.9223 10.2021 30.1392C15.5612 35.6581 25.0873 47.9375 26.636 47.8146C29.2665 47.6056 35.8671 30.9996 44.926 19.089C45.9094 17.8106 43.0823 15.2417 40.7223 15.2662Z" fill="#09A522"/>
</svg>
