<svg width="20" height="23" viewBox="0 0 20 23" fill="none" xmlns="http://www.w3.org/2000/svg">
<path d="M14.8109 8.15163C16.2691 9.19344 18.0554 9.80642 19.9847 9.80642V6.09588C19.6195 6.09596 19.2554 6.05786 18.8982 5.98222V8.90295C16.969 8.90295 15.1829 8.29004 13.7245 7.24831V14.8205C13.7245 18.6086 10.6521 21.6791 6.86235 21.6791C5.44832 21.6791 4.13398 21.2519 3.04221 20.5191C4.28832 21.7926 6.0261 22.5825 7.94858 22.5825C11.7386 22.5825 14.8111 19.512 14.8111 15.7238V8.15163H14.8109ZM16.1514 4.40814C15.4061 3.59445 14.9168 2.54288 14.8109 1.3803V0.903076H13.7813C14.0405 2.38066 14.9246 3.64301 16.1514 4.40814ZM5.43919 17.6123C5.02284 17.0667 4.79779 16.3992 4.7988 15.7129C4.7988 13.9804 6.20409 12.5757 7.93789 12.5757C8.26095 12.5755 8.5821 12.6251 8.89007 12.7227V8.92918C8.53018 8.87992 8.16701 8.85892 7.804 8.86665V11.8193C7.49589 11.7217 7.17456 11.6721 6.85135 11.6724C5.11763 11.6724 3.71241 13.077 3.71241 14.8097C3.71241 16.0349 4.41479 17.0956 5.43919 17.6123Z" fill="#FF004F"/>
<path d="M13.7245 7.24823C15.183 8.28996 16.969 8.90287 18.8982 8.90287V5.98214C17.8213 5.75285 16.868 5.19046 16.1513 4.40814C14.9244 3.64293 14.0405 2.38058 13.7813 0.903076H11.0768V15.7236C11.0707 17.4514 9.66778 18.8504 7.93773 18.8504C6.91833 18.8504 6.01259 18.3647 5.43903 17.6122C4.41479 17.0956 3.71234 16.0348 3.71234 14.8098C3.71234 13.0772 5.11755 11.6725 6.85127 11.6725C7.18345 11.6725 7.5036 11.7241 7.80392 11.8194V8.86673C4.08074 8.94362 1.08646 11.9842 1.08646 15.7237C1.08646 17.5904 1.83209 19.2827 3.04229 20.5192C4.13406 21.2519 5.44832 21.6793 6.86243 21.6793C10.6522 21.6793 13.7246 18.6085 13.7246 14.8205L13.7245 7.24823Z" fill="black"/>
<path d="M18.8982 5.9823V5.19273C17.9271 5.1942 16.9752 4.92239 16.1513 4.40838C16.8806 5.2064 17.8409 5.75671 18.8982 5.98246M13.7812 0.903239C13.7565 0.762063 13.7376 0.619941 13.7244 0.477226V0H9.99012V14.8207C9.98419 16.5483 8.58132 17.9473 6.85119 17.9473C6.36071 17.948 5.87694 17.8334 5.43895 17.6126C6.01251 18.365 6.91825 18.8505 7.93765 18.8505C9.66763 18.8505 11.0707 17.4517 11.0767 15.7239V0.903317L13.7812 0.903239ZM7.80408 8.86689V8.02618C7.49204 7.98353 7.17745 7.96219 6.86251 7.96232C3.07234 7.96232 0 11.033 0 14.8207C0 17.1954 1.20747 19.2883 3.04236 20.5193C1.83216 19.2829 1.08654 17.5905 1.08654 15.7239C1.08654 11.9844 4.08074 8.94378 7.80408 8.86689Z" fill="#00F2EA"/>
</svg>
