<svg width="13" height="13" viewBox="0 0 13 13" fill="none" xmlns="http://www.w3.org/2000/svg">
<path d="M2.25955 11.9271L2.54991 11.52L2.25955 11.9271ZM1.58356 11.2634L1.98548 10.9659L1.58356 11.2634ZM11.4164 11.2634L11.0145 10.9659L11.4164 11.2634ZM10.7405 11.9271L11.0308 12.3341L10.7405 11.9271ZM10.7405 2.27295L11.0308 1.8659L10.7405 2.27295ZM11.4164 2.93664L11.0145 3.23407L11.4164 2.93664ZM2.25955 2.27295L2.54991 2.68V2.68L2.25955 2.27295ZM1.58356 2.93664L1.98548 3.23407L1.58356 2.93664ZM10.9109 8.93694L10.8341 8.44287L10.9109 8.93694ZM8.37095 11.4307L7.87733 11.3511L8.37095 11.4307ZM4.66667 7.2C4.39052 7.2 4.16667 7.42386 4.16667 7.7C4.16667 7.97614 4.39052 8.2 4.66667 8.2V7.2ZM8.33333 8.2C8.60948 8.2 8.83333 7.97614 8.83333 7.7C8.83333 7.42386 8.60948 7.2 8.33333 7.2V8.2ZM7.83333 2.3C7.83333 2.57614 8.05719 2.8 8.33333 2.8C8.60948 2.8 8.83333 2.57614 8.83333 2.3H7.83333ZM8.83333 0.5C8.83333 0.223858 8.60948 0 8.33333 0C8.05719 0 7.83333 0.223858 7.83333 0.5H8.83333ZM4.16667 2.3C4.16667 2.57614 4.39052 2.8 4.66667 2.8C4.94281 2.8 5.16667 2.57614 5.16667 2.3H4.16667ZM5.16667 0.5C5.16667 0.223858 4.94281 0 4.66667 0C4.39052 0 4.16667 0.223858 4.16667 0.5H5.16667ZM11.9823 8.9L12.482 8.91744L11.9823 8.9ZM1.01768 5.3L0.517983 5.28256L1.01768 5.3ZM11.9823 5.3L12.482 5.28256L11.9823 5.3ZM6.5 12C5.34331 12 4.51523 11.9993 3.87455 11.9312C3.24269 11.864 2.85246 11.7358 2.54991 11.52L1.96918 12.3341C2.46983 12.6912 3.05408 12.8496 3.76877 12.9256C4.47464 13.0007 5.36519 13 6.5 13V12ZM0.5 7.1C0.5 8.21358 0.499288 9.08966 0.575962 9.78449C0.653728 10.4892 0.816008 11.0667 1.18164 11.5608L1.98548 10.9659C1.76755 10.6714 1.63805 10.2921 1.56993 9.6748C1.50071 9.04755 1.5 8.23626 1.5 7.1H0.5ZM2.54991 11.52C2.33297 11.3653 2.14256 11.1782 1.98548 10.9659L1.18164 11.5608C1.40149 11.8579 1.66732 12.1188 1.96918 12.3341L2.54991 11.52ZM11.0145 10.9659C10.8574 11.1782 10.667 11.3653 10.4501 11.52L11.0308 12.3341C11.3327 12.1188 11.5985 11.8579 11.8184 11.5608L11.0145 10.9659ZM10.4501 2.68C10.667 2.83475 10.8574 3.02179 11.0145 3.23407L11.8184 2.63922C11.5985 2.34213 11.3327 2.08123 11.0308 1.8659L10.4501 2.68ZM1.96918 1.8659C1.66732 2.08123 1.40149 2.34213 1.18164 2.63922L1.98548 3.23407C2.14256 3.02179 2.33297 2.83475 2.54991 2.68L1.96918 1.8659ZM10.8341 8.44287C9.31777 8.67867 8.11974 9.84842 7.87733 11.3511L8.86457 11.5103C9.03633 10.4456 9.88912 9.60184 10.9877 9.431L10.8341 8.44287ZM4.66667 8.2H8.33333V7.2H4.66667V8.2ZM11.9823 8.4C11.4444 8.4 11.1168 8.39891 10.8341 8.44287L10.9877 9.431C11.1751 9.40186 11.4084 9.4 11.9823 9.4L11.9823 8.4ZM11.5 7.1C11.5 7.80417 11.4999 8.38653 11.4826 8.88256L12.482 8.91744C12.5001 8.40025 12.5 7.79854 12.5 7.1H11.5ZM11.4826 8.88256C11.4438 9.99417 11.3174 10.5567 11.0145 10.9659L11.8184 11.5608C12.3188 10.8845 12.4427 10.0428 12.482 8.91744L11.4826 8.88256ZM8.83333 12.4826C8.83334 11.9181 8.83531 11.6917 8.86457 11.5103L7.87733 11.3511C7.83215 11.6312 7.83334 11.9554 7.83333 12.4826L8.83333 12.4826ZM6.5 13C7.21163 13 7.82396 13.0001 8.35014 12.9824L8.31652 11.9829C7.81073 11.9999 7.21706 12 6.5 12V13ZM8.35014 12.9824C9.49485 12.9439 10.3461 12.8225 11.0308 12.3341L10.4501 11.52C10.0292 11.8203 9.45027 11.9448 8.31652 11.9829L8.35014 12.9824ZM1.5 7.1C1.5 6.39583 1.50006 5.81347 1.51737 5.31744L0.517983 5.28256C0.499935 5.79975 0.5 6.40146 0.5 7.1H1.5ZM1.51737 5.31744C1.55616 4.20583 1.68261 3.64335 1.98548 3.23407L1.18164 2.63922C0.681221 3.31546 0.557255 4.15715 0.517983 5.28256L1.51737 5.31744ZM1.01768 5.8H11.9823V4.8H1.01768V5.8ZM12.5 7.1C12.5 6.40146 12.5001 5.79975 12.482 5.28256L11.4826 5.31744C11.4999 5.81347 11.5 6.39583 11.5 7.1H12.5ZM12.482 5.28256C12.4427 4.15715 12.3188 3.31546 11.8184 2.63922L11.0145 3.23407C11.3174 3.64335 11.4438 4.20583 11.4826 5.31744L12.482 5.28256ZM8.83333 2.3V1.71736H7.83333V2.3H8.83333ZM8.83333 1.71736V0.5H7.83333V1.71736H8.83333ZM6.5 2.2C7.21706 2.2 7.81073 2.20006 8.31652 2.21707L8.35014 1.21764C7.82396 1.19994 7.21163 1.2 6.5 1.2V2.2ZM8.31652 2.21707C9.45027 2.25521 10.0292 2.37974 10.4501 2.68L11.0308 1.8659C10.3461 1.37748 9.49485 1.25615 8.35014 1.21764L8.31652 2.21707ZM5.16667 2.3V1.71736H4.16667V2.3H5.16667ZM5.16667 1.71736V0.5H4.16667V1.71736H5.16667ZM6.5 1.2C5.78837 1.2 5.17604 1.19994 4.64986 1.21764L4.68348 2.21707C5.18927 2.20006 5.78294 2.2 6.5 2.2V1.2ZM4.64986 1.21764C3.50515 1.25615 2.65389 1.37748 1.96918 1.8659L2.54991 2.68C2.97083 2.37974 3.54973 2.25521 4.68348 2.21707L4.64986 1.21764Z" fill="#433D37"/>
</svg>
