<svg width="17" height="20" viewBox="0 0 17 20" fill="none" xmlns="http://www.w3.org/2000/svg">
<ellipse cx="8.61405" cy="5.67155" rx="4.37986" ry="4.37986" stroke="#807A7A" stroke-width="1.5" stroke-linecap="round" stroke-linejoin="round"/>
<path fill-rule="evenodd" clip-rule="evenodd" d="M1.66667 16.143C1.66549 15.8351 1.73436 15.5309 1.86804 15.2536C2.28757 14.4145 3.47064 13.9698 4.45233 13.7684C5.16033 13.6174 5.8781 13.5164 6.60031 13.4664C7.93743 13.3489 9.28226 13.3489 10.6194 13.4664C11.3415 13.517 12.0593 13.6179 12.7674 13.7684C13.7491 13.9698 14.9321 14.3726 15.3516 15.2536C15.6205 15.819 15.6205 16.4754 15.3516 17.0408C14.9321 17.9218 13.7491 18.3245 12.7674 18.5175C12.0602 18.6748 11.3422 18.7786 10.6194 18.8279C9.53108 18.9202 8.43769 18.937 7.34707 18.8783C7.09535 18.8783 6.85203 18.8783 6.60031 18.8279C5.88024 18.7792 5.16495 18.6754 4.46072 18.5175C3.47064 18.3245 2.29596 17.9218 1.86804 17.0408C1.73504 16.7602 1.66625 16.4535 1.66667 16.143Z" stroke="#807A7A" stroke-width="1.5" stroke-linecap="round" stroke-linejoin="round"/>
</svg>
