<svg width="21" height="21" viewBox="0 0 21 21" fill="none" xmlns="http://www.w3.org/2000/svg">
<g clip-path="url(#clip0_105_1238)">
<path d="M0 10.5C0 7.71523 1.10625 5.04451 3.07538 3.07538C5.04451 1.10625 7.71523 0 10.5 0C13.2848 0 15.9555 1.10625 17.9246 3.07538C19.8938 5.04451 21 7.71523 21 10.5C21 13.2848 19.8938 15.9555 17.9246 17.9246C15.9555 19.8938 13.2848 21 10.5 21C7.71523 21 5.04451 19.8938 3.07538 17.9246C1.10625 15.9555 0 13.2848 0 10.5ZM10.5 1.96875C8.23737 1.96875 6.06742 2.86758 4.4675 4.4675C2.86758 6.06742 1.96875 8.23737 1.96875 10.5C1.96875 12.7626 2.86758 14.9326 4.4675 16.5325C6.06742 18.1324 8.23737 19.0312 10.5 19.0312C12.7626 19.0312 14.9326 18.1324 16.5325 16.5325C18.1324 14.9326 19.0312 12.7626 19.0312 10.5C19.0312 8.23737 18.1324 6.06742 16.5325 4.4675C14.9326 2.86758 12.7626 1.96875 10.5 1.96875ZM8.53125 10.1719C8.53125 9.9108 8.63496 9.66042 8.81957 9.47582C9.00417 9.29121 9.25455 9.1875 9.51562 9.1875H10.8281C11.0892 9.1875 11.3396 9.29121 11.5242 9.47582C11.7088 9.66042 11.8125 9.9108 11.8125 10.1719V13.7812H12.1406C12.4017 13.7812 12.6521 13.885 12.8367 14.0696C13.0213 14.2542 13.125 14.5046 13.125 14.7656C13.125 15.0267 13.0213 15.2771 12.8367 15.4617C12.6521 15.6463 12.4017 15.75 12.1406 15.75H9.51562C9.25455 15.75 9.00417 15.6463 8.81957 15.4617C8.63496 15.2771 8.53125 15.0267 8.53125 14.7656C8.53125 14.5046 8.63496 14.2542 8.81957 14.0696C9.00417 13.885 9.25455 13.7812 9.51562 13.7812H9.84375V11.1562H9.51562C9.25455 11.1562 9.00417 11.0525 8.81957 10.8679C8.63496 10.6833 8.53125 10.4329 8.53125 10.1719ZM10.5 7.875C10.1519 7.875 9.81806 7.73672 9.57192 7.49058C9.32578 7.24444 9.1875 6.9106 9.1875 6.5625C9.1875 6.2144 9.32578 5.88056 9.57192 5.63442C9.81806 5.38828 10.1519 5.25 10.5 5.25C10.8481 5.25 11.1819 5.38828 11.4281 5.63442C11.6742 5.88056 11.8125 6.2144 11.8125 6.5625C11.8125 6.9106 11.6742 7.24444 11.4281 7.49058C11.1819 7.73672 10.8481 7.875 10.5 7.875Z" fill="white"/>
</g>
<defs>
<clipPath id="clip0_105_1238">
<rect width="21" height="21" fill="white"/>
</clipPath>
</defs>
</svg>
