<svg width="20" height="20" viewBox="0 0 20 20" fill="none" xmlns="http://www.w3.org/2000/svg">
<path d="M7.65281 17.5L7.90281 17.8333C9.02781 19.3333 11.2778 19.3333 12.4028 17.8333L12.6528 17.5M3.6385 12.958L3.72463 13.1355C4.27777 14.2759 5.43379 15 6.70121 15H13.5519C14.638 15 15.6488 14.4451 16.2319 13.5288C17.0551 12.2354 16.8371 10.5387 15.7137 9.4954L15.6771 9.46143C14.9144 8.75309 14.5389 7.72115 14.668 6.68828L14.7218 6.2575C15.0265 3.81979 13.1258 1.66663 10.6691 1.66663H9.24997C6.79627 1.66663 4.89782 3.81716 5.20216 6.25191L5.26829 6.78095C5.39008 7.75522 5.0342 8.72837 4.31263 9.39423C3.32703 10.3037 3.0532 11.7513 3.6385 12.958Z" stroke="white" stroke-width="1.5" stroke-linecap="round"/>
</svg>
