<svg width="14" height="14" viewBox="0 0 14 14" fill="none" xmlns="http://www.w3.org/2000/svg">
<path d="M13.1833 14C11.563 14 9.95893 13.65 8.37122 12.95C6.78352 12.25 5.34126 11.2519 4.04444 9.95556C2.74763 8.65926 1.74948 7.22037 1.05 5.63889C0.350518 4.05741 0.000518519 2.45 0 0.816667V0H4.58889L5.30833 3.90833L3.09167 6.14444C3.37685 6.65 3.69444 7.12963 4.04444 7.58333C4.39444 8.03704 4.77037 8.45833 5.17222 8.84722C5.54815 9.22315 5.95985 9.583 6.40733 9.92678C6.85482 10.2706 7.33756 10.5913 7.85556 10.8889L10.1111 8.63333L14 9.43056V14H13.1833Z" fill="white"/>
</svg>
